REM DIRINDEX 1\2\4\18,1\2\4\19,1\2\5\20,1\2\5\21,1\2\6\22,1\2\7\23,1\2\8\24,1\2\8\25,1\2\9\26,1\2\10\27,1\3\11\28,1\3\11\29,1\3\11\30,1\3\11\31,1\3\12\32,1\3\12\33,1\3\12\34,1\3\12\35,1\3\13\36,1\3\13\37,1\3\14\38,1\3\14\39,1\3\15\40,1\3\15\41,1\3\15\42,1\3\16\43,1\3\16\44,1\3\17\45,1\3\17\46
REM DIRNAME folder01,folder02,folder03,folder04,folder05,folder06,folder07,folder08,folder09,folder10,folder11,folder12,folder13,folder14,folder15,folder16,folder17,folder18,folder19,folder20,folder21,folder22,folder23,folder24,folder25,folder26,folder27,folder28,folder29,folder30,folder31,folder32,folder33,folder34,folder35,folder36,folder37,folder38,folder39,folder40,folder41,folder42,folder43,folder44,folder45,folder46
TITLE ""
FILE "02.mp3" MP3
  TRACK 01 AUDIO
    TITLE "0:"
    INDEX 01 00:00:00
  TRACK 02 AUDIO
    TITLE "18:cjc024_0201"
    INDEX 01 00:00:13
  TRACK 03 AUDIO
    TITLE "0:"
    INDEX 01 00:01:24
  TRACK 04 AUDIO
    TITLE "19:cjc024_0202"
    INDEX 01 00:01:50
  TRACK 05 AUDIO
    TITLE "0:"
    INDEX 01 00:03:37
  TRACK 06 AUDIO
    TITLE "18:cjc024_0203"
    INDEX 01 00:04:38
  TRACK 07 AUDIO
    TITLE "0:"
    INDEX 01 00:05:46
  TRACK 08 AUDIO
    TITLE "19:cjc024_0204"
    INDEX 01 00:05:69
  TRACK 09 AUDIO
    TITLE "0:"
    INDEX 01 00:07:56
  TRACK 10 AUDIO
    TITLE "18:cjc024_0205"
    INDEX 01 00:08:58
  TRACK 11 AUDIO
    TITLE "0:"
    INDEX 01 00:09:53
  TRACK 12 AUDIO
    TITLE "19:cjc024_0206"
    INDEX 01 00:10:10
  TRACK 13 AUDIO
    TITLE "0:"
    INDEX 01 00:11:39
  TRACK 14 AUDIO
    TITLE "18:cjc024_0207"
    INDEX 01 00:12:38
  TRACK 15 AUDIO
    TITLE "0:"
    INDEX 01 00:13:71
  TRACK 16 AUDIO
    TITLE "19:cjc024_0208"
    INDEX 01 00:14:21
  TRACK 17 AUDIO
    TITLE "0:"
    INDEX 01 00:17:12
  TRACK 18 AUDIO
    TITLE "18:cjc024_0209"
    INDEX 01 00:18:11
  TRACK 19 AUDIO
    TITLE "0:"
    INDEX 01 00:19:20
  TRACK 20 AUDIO
    TITLE "19:cjc024_0210"
    INDEX 01 00:19:46
  TRACK 21 AUDIO
    TITLE "0:"
    INDEX 01 00:21:33
  TRACK 22 AUDIO
    TITLE "18:cjc024_0211"
    INDEX 01 00:22:32
  TRACK 23 AUDIO
    TITLE "0:"
    INDEX 01 00:23:26
  TRACK 24 AUDIO
    TITLE "19:cjc024_0212"
    INDEX 01 00:23:53
  TRACK 25 AUDIO
    TITLE "0:"
    INDEX 01 00:25:31
  TRACK 26 AUDIO
    TITLE "18:cjc024_0213"
    INDEX 01 00:26:30
  TRACK 27 AUDIO
    TITLE "0:"
    INDEX 01 00:27:34
  TRACK 28 AUDIO
    TITLE "19:cjc024_0214"
    INDEX 01 00:27:57
  TRACK 29 AUDIO
    TITLE "0:"
    INDEX 01 00:29:11
  TRACK 30 AUDIO
    TITLE "18:cjc024_0215"
    INDEX 01 00:30:12
  TRACK 31 AUDIO
    TITLE "0:"
    INDEX 01 00:31:20
  TRACK 32 AUDIO
    TITLE "19:cjc024_0216"
    INDEX 01 00:31:43
  TRACK 33 AUDIO
    TITLE "0:"
    INDEX 01 00:33:22
  TRACK 34 AUDIO
    TITLE "18:cjc024_0217"
    INDEX 01 00:34:24
  TRACK 35 AUDIO
    TITLE "0:"
    INDEX 01 00:35:23
  TRACK 36 AUDIO
    TITLE "19:cjc024_0218"
    INDEX 01 00:35:47
  TRACK 37 AUDIO
    TITLE "0:"
    INDEX 01 00:37:32
  TRACK 38 AUDIO
    TITLE "18:cjc024_0219"
    INDEX 01 00:38:33
  TRACK 39 AUDIO
    TITLE "0:"
    INDEX 01 00:39:51
  TRACK 40 AUDIO
    TITLE "19:cjc024_0220"
    INDEX 01 00:40:01
  TRACK 41 AUDIO
    TITLE "0:"
    INDEX 01 00:41:67
  TRACK 42 AUDIO
    TITLE "18:cjc024_0221"
    INDEX 01 00:42:65
  TRACK 43 AUDIO
    TITLE "0:"
    INDEX 01 00:43:72
  TRACK 44 AUDIO
    TITLE "19:cjc024_0222"
    INDEX 01 00:44:20
  TRACK 45 AUDIO
    TITLE "0:"
    INDEX 01 00:45:65
  TRACK 46 AUDIO
    TITLE "18:cjc024_0223"
    INDEX 01 00:46:66
  TRACK 47 AUDIO
    TITLE "0:"
    INDEX 01 00:48:24
  TRACK 48 AUDIO
    TITLE "19:cjc024_0224"
    INDEX 01 00:48:48
  TRACK 49 AUDIO
    TITLE "0:"
    INDEX 01 00:50:39
  TRACK 50 AUDIO
    TITLE "18:cjc024_0225"
    INDEX 01 00:51:40
  TRACK 51 AUDIO
    TITLE "0:"
    INDEX 01 00:52:47
  TRACK 52 AUDIO
    TITLE "19:cjc024_0226"
    INDEX 01 00:52:73
  TRACK 53 AUDIO
    TITLE "0:"
    INDEX 01 00:54:56
  TRACK 54 AUDIO
    TITLE "18:cjc024_0227"
    INDEX 01 00:55:57
  TRACK 55 AUDIO
    TITLE "0:"
    INDEX 01 00:56:65
  TRACK 56 AUDIO
    TITLE "19:cjc024_0228"
    INDEX 01 00:57:13
  TRACK 57 AUDIO
    TITLE "0:"
    INDEX 01 00:58:73
  TRACK 58 AUDIO
    TITLE "18:cjc024_0229"
    INDEX 01 00:59:73
  TRACK 59 AUDIO
    TITLE "0:"
    INDEX 01 01:01:11
  TRACK 60 AUDIO
    TITLE "19:cjc024_0230"
    INDEX 01 01:01:34
  TRACK 61 AUDIO
    TITLE "0:"
    INDEX 01 01:03:16
  TRACK 62 AUDIO
    TITLE "18:cjc024_0231"
    INDEX 01 01:04:15
  TRACK 63 AUDIO
    TITLE "0:"
    INDEX 01 01:05:46
  TRACK 64 AUDIO
    TITLE "19:cjc024_0232"
    INDEX 01 01:05:73
  TRACK 65 AUDIO
    TITLE "0:"
    INDEX 01 01:08:07
  TRACK 66 AUDIO
    TITLE "18:cjc024_0233"
    INDEX 01 01:09:09
  TRACK 67 AUDIO
    TITLE "0:"
    INDEX 01 01:10:24
  TRACK 68 AUDIO
    TITLE "19:cjc024_0234"
    INDEX 01 01:10:47
  TRACK 69 AUDIO
    TITLE "0:"
    INDEX 01 01:12:44
  TRACK 70 AUDIO
    TITLE "18:cjc024_0235"
    INDEX 01 01:13:44
  TRACK 71 AUDIO
    TITLE "0:"
    INDEX 01 01:14:45
  TRACK 72 AUDIO
    TITLE "19:cjc024_0236"
    INDEX 01 01:14:70
  TRACK 73 AUDIO
    TITLE "0:"
    INDEX 01 01:17:18
  TRACK 74 AUDIO
    TITLE "18:cjc024_0237"
    INDEX 01 01:18:17
  TRACK 75 AUDIO
    TITLE "0:"
    INDEX 01 01:19:27
  TRACK 76 AUDIO
    TITLE "19:cjc024_0238"
    INDEX 01 01:19:52
  TRACK 77 AUDIO
    TITLE "0:"
    INDEX 01 01:21:37
  TRACK 78 AUDIO
    TITLE "18:cjc024_0239"
    INDEX 01 01:22:42
  TRACK 79 AUDIO
    TITLE "0:"
    INDEX 01 01:23:50
  TRACK 80 AUDIO
    TITLE "19:cjc024_0240"
    INDEX 01 01:24:06
  TRACK 81 AUDIO
    TITLE "0:"
    INDEX 01 01:25:74
  TRACK 82 AUDIO
    TITLE "18:cjc024_0241"
    INDEX 01 01:26:74
  TRACK 83 AUDIO
    TITLE "0:"
    INDEX 01 01:28:25
  TRACK 84 AUDIO
    TITLE "19:cjc024_0242"
    INDEX 01 01:28:51
  TRACK 85 AUDIO
    TITLE "0:"
    INDEX 01 01:30:54
  TRACK 86 AUDIO
    TITLE "18:cjc024_0243"
    INDEX 01 01:31:71
  TRACK 87 AUDIO
    TITLE "0:"
    INDEX 01 01:32:74
  TRACK 88 AUDIO
    TITLE "19:cjc024_0244"
    INDEX 01 01:33:23
  TRACK 89 AUDIO
    TITLE "0:"
    INDEX 01 01:35:08
  TRACK 90 AUDIO
    TITLE "18:cjc024_0245"
    INDEX 01 01:36:03
  TRACK 91 AUDIO
    TITLE "0:"
    INDEX 01 01:37:07
  TRACK 92 AUDIO
    TITLE "19:cjc024_0246"
    INDEX 01 01:37:32
  TRACK 93 AUDIO
    TITLE "0:"
    INDEX 01 01:39:33
  TRACK 94 AUDIO
    TITLE "18:cjc024_0247"
    INDEX 01 01:40:38
  TRACK 95 AUDIO
    TITLE "0:"
    INDEX 01 01:41:50
  TRACK 96 AUDIO
    TITLE "19:cjc024_0248"
    INDEX 01 01:42:00
  TRACK 97 AUDIO
    TITLE "0:"
    INDEX 01 01:44:48
  TRACK 98 AUDIO
    TITLE "18:cjc024_0249"
    INDEX 01 01:45:47
  TRACK 99 AUDIO
    TITLE "0:"
    INDEX 01 01:46:51
  TRACK 100 AUDIO
    TITLE "19:cjc024_0250"
    INDEX 01 01:47:07
  TRACK 101 AUDIO
    TITLE "0:"
    INDEX 01 01:49:16
  TRACK 102 AUDIO
    TITLE "18:cjc024_0251"
    INDEX 01 01:50:25
  TRACK 103 AUDIO
    TITLE "0:"
    INDEX 01 01:51:38
  TRACK 104 AUDIO
    TITLE "19:cjc024_0252"
    INDEX 01 01:51:62
  TRACK 105 AUDIO
    TITLE "0:"
    INDEX 01 01:53:70
  TRACK 106 AUDIO
    TITLE "18:cjc024_0253"
    INDEX 01 01:54:70
  TRACK 107 AUDIO
    TITLE "0:"
    INDEX 01 01:56:16
  TRACK 108 AUDIO
    TITLE "19:cjc024_0254"
    INDEX 01 01:56:39
  TRACK 109 AUDIO
    TITLE "0:"
    INDEX 01 01:59:03
  TRACK 110 AUDIO
    TITLE "18:cjc024_0255"
    INDEX 01 02:00:02
  TRACK 111 AUDIO
    TITLE "0:"
    INDEX 01 02:01:05
  TRACK 112 AUDIO
    TITLE "19:cjc024_0256"
    INDEX 01 02:01:27
  TRACK 113 AUDIO
    TITLE "0:"
    INDEX 01 02:04:17
  TRACK 114 AUDIO
    TITLE "18:cjc024_0257"
    INDEX 01 02:05:19
  TRACK 115 AUDIO
    TITLE "0:"
    INDEX 01 02:06:38
  TRACK 116 AUDIO
    TITLE "19:cjc024_0258"
    INDEX 01 02:06:65
  TRACK 117 AUDIO
    TITLE "0:"
    INDEX 01 02:08:48
  TRACK 118 AUDIO
    TITLE "18:cjc024_0259"
    INDEX 01 02:09:50
  TRACK 119 AUDIO
    TITLE "0:"
    INDEX 01 02:10:65
  TRACK 120 AUDIO
    TITLE "19:cjc024_0260"
    INDEX 01 02:11:15
  TRACK 121 AUDIO
    TITLE "0:"
    INDEX 01 02:13:61
  TRACK 122 AUDIO
    TITLE "18:cjc024_0261"
    INDEX 01 02:14:61
  TRACK 123 AUDIO
    TITLE "0:"
    INDEX 01 02:15:72
  TRACK 124 AUDIO
    TITLE "19:cjc024_0262"
    INDEX 01 02:16:23
  TRACK 125 AUDIO
    TITLE "0:"
    INDEX 01 02:18:12
  TRACK 126 AUDIO
    TITLE "18:cjc024_0263"
    INDEX 01 02:19:13
  TRACK 127 AUDIO
    TITLE "0:"
    INDEX 01 02:20:22
  TRACK 128 AUDIO
    TITLE "19:cjc024_0264"
    INDEX 01 02:20:48
  TRACK 129 AUDIO
    TITLE "0:"
    INDEX 01 02:23:28
  TRACK 130 AUDIO
    TITLE "18:cjc024_0265"
    INDEX 01 02:24:28
  TRACK 131 AUDIO
    TITLE "0:"
    INDEX 01 02:25:39
  TRACK 132 AUDIO
    TITLE "19:cjc024_0266"
    INDEX 01 02:25:63
  TRACK 133 AUDIO
    TITLE "0:"
    INDEX 01 02:28:51
  TRACK 134 AUDIO
    TITLE "18:cjc024_0267"
    INDEX 01 02:29:51
  TRACK 135 AUDIO
    TITLE "0:"
    INDEX 01 02:31:06
  TRACK 136 AUDIO
    TITLE "19:cjc024_0268"
    INDEX 01 02:31:34
  TRACK 137 AUDIO
    TITLE "0:"
    INDEX 01 02:33:25
  TRACK 138 AUDIO
    TITLE "18:cjc024_0269"
    INDEX 01 02:34:28
  TRACK 139 AUDIO
    TITLE "0:"
    INDEX 01 02:35:39
  TRACK 140 AUDIO
    TITLE "19:cjc024_0270"
    INDEX 01 02:35:63
  TRACK 141 AUDIO
    TITLE "0:"
    INDEX 01 02:37:33
  TRACK 142 AUDIO
    TITLE "18:cjc024_0271"
    INDEX 01 02:38:32
  TRACK 143 AUDIO
    TITLE "0:"
    INDEX 01 02:39:51
  TRACK 144 AUDIO
    TITLE "19:cjc024_0272"
    INDEX 01 02:40:00
  TRACK 145 AUDIO
    TITLE "0:"
    INDEX 01 02:41:46
  TRACK 146 AUDIO
    TITLE "18:cjc024_0273"
    INDEX 01 02:42:47
  TRACK 147 AUDIO
    TITLE "0:"
    INDEX 01 02:43:55
  TRACK 148 AUDIO
    TITLE "19:cjc024_0274"
    INDEX 01 02:44:03
  TRACK 149 AUDIO
    TITLE "0:"
    INDEX 01 02:45:52
  TRACK 150 AUDIO
    TITLE "18:cjc024_0275"
    INDEX 01 02:46:51
  TRACK 151 AUDIO
    TITLE "0:"
    INDEX 01 02:47:72
  TRACK 152 AUDIO
    TITLE "19:cjc024_0276"
    INDEX 01 02:48:23
  TRACK 153 AUDIO
    TITLE "0:"
    INDEX 01 02:51:39
  TRACK 154 AUDIO
    TITLE "18:cjc024_0277"
    INDEX 01 02:52:36
  TRACK 155 AUDIO
    TITLE "0:"
    INDEX 01 02:53:49
  TRACK 156 AUDIO
    TITLE "19:cjc024_0278"
    INDEX 01 02:53:73
  TRACK 157 AUDIO
    TITLE "0:"
    INDEX 01 02:55:70
  TRACK 158 AUDIO
    TITLE "18:cjc024_0279"
    INDEX 01 02:56:71
  TRACK 159 AUDIO
    TITLE "0:"
    INDEX 01 02:58:17
  TRACK 160 AUDIO
    TITLE "19:cjc024_0280"
    INDEX 01 02:58:41
  TRACK 161 AUDIO
    TITLE "0:"
    INDEX 01 03:00:37
  TRACK 162 AUDIO
    TITLE "18:cjc024_0281"
    INDEX 01 03:01:39
  TRACK 163 AUDIO
    TITLE "0:"
    INDEX 01 03:02:38
  TRACK 164 AUDIO
    TITLE "19:cjc024_0282"
    INDEX 01 03:02:70
  TRACK 165 AUDIO
    TITLE "0:"
    INDEX 01 03:05:29
  TRACK 166 AUDIO
    TITLE "18:cjc024_0283"
    INDEX 01 03:06:28
  TRACK 167 AUDIO
    TITLE "0:"
    INDEX 01 03:07:34
  TRACK 168 AUDIO
    TITLE "19:cjc024_0284"
    INDEX 01 03:07:57
  TRACK 169 AUDIO
    TITLE "0:"
    INDEX 01 03:10:57
  TRACK 170 AUDIO
    TITLE "18:cjc024_0285"
    INDEX 01 03:11:61
  TRACK 171 AUDIO
    TITLE "0:"
    INDEX 01 03:13:13
  TRACK 172 AUDIO
    TITLE "19:cjc024_0286"
    INDEX 01 03:13:36
  TRACK 173 AUDIO
    TITLE "0:"
    INDEX 01 03:15:53
  TRACK 174 AUDIO
    TITLE "18:cjc024_0287"
    INDEX 01 03:16:52
  TRACK 175 AUDIO
    TITLE "0:"
    INDEX 01 03:17:71
  TRACK 176 AUDIO
    TITLE "19:cjc024_0288"
    INDEX 01 03:18:20
  TRACK 177 AUDIO
    TITLE "0:"
    INDEX 01 03:21:40
  TRACK 178 AUDIO
    TITLE "18:cjc024_0289"
    INDEX 01 03:22:41
  TRACK 179 AUDIO
    TITLE "0:"
    INDEX 01 03:23:60
  TRACK 180 AUDIO
    TITLE "19:cjc024_0290"
    INDEX 01 03:24:09
  TRACK 181 AUDIO
    TITLE "0:"
    INDEX 01 03:26:45
  TRACK 182 AUDIO
    TITLE "18:cjc024_0291"
    INDEX 01 03:27:42
  TRACK 183 AUDIO
    TITLE "0:"
    INDEX 01 03:28:57
  TRACK 184 AUDIO
    TITLE "19:cjc024_0292"
    INDEX 01 03:29:08
  TRACK 185 AUDIO
    TITLE "0:"
    INDEX 01 03:31:15
  TRACK 186 AUDIO
    TITLE "18:cjc024_0293"
    INDEX 01 03:32:16
  TRACK 187 AUDIO
    TITLE "0:"
    INDEX 01 03:33:21
  TRACK 188 AUDIO
    TITLE "19:cjc024_0294"
    INDEX 01 03:33:47
  TRACK 189 AUDIO
    TITLE "0:"
    INDEX 01 03:35:73
  TRACK 190 AUDIO
    TITLE "18:cjc024_0295"
    INDEX 01 03:36:72
  TRACK 191 AUDIO
    TITLE "0:"
    INDEX 01 03:38:22
  TRACK 192 AUDIO
    TITLE "19:cjc024_0296"
    INDEX 01 03:38:58
  TRACK 193 AUDIO
    TITLE "0:"
    INDEX 01 03:41:23
  TRACK 194 AUDIO
    TITLE "18:cjc024_0297"
    INDEX 01 03:42:22
  TRACK 195 AUDIO
    TITLE "0:"
    INDEX 01 03:43:20
  TRACK 196 AUDIO
    TITLE "19:cjc024_0298"
    INDEX 01 03:43:43
  TRACK 197 AUDIO
    TITLE "0:"
    INDEX 01 03:45:60
  TRACK 198 AUDIO
    TITLE "18:cjc024_0299"
    INDEX 01 03:46:59
  TRACK 199 AUDIO
    TITLE "0:"
    INDEX 01 03:47:68
  TRACK 200 AUDIO
    TITLE "19:cjc024_0300"
    INDEX 01 03:48:17
  TRACK 201 AUDIO
    TITLE "0:"
    INDEX 01 03:50:02
  TRACK 202 AUDIO
    TITLE "18:cjc024_0301"
    INDEX 01 03:51:03
  TRACK 203 AUDIO
    TITLE "0:"
    INDEX 01 03:52:11
  TRACK 204 AUDIO
    TITLE "19:cjc024_0302"
    INDEX 01 03:52:36
  TRACK 205 AUDIO
    TITLE "0:"
    INDEX 01 03:54:04
  TRACK 206 AUDIO
    TITLE "18:cjc024_0303"
    INDEX 01 03:55:05
  TRACK 207 AUDIO
    TITLE "0:"
    INDEX 01 03:56:18
  TRACK 208 AUDIO
    TITLE "19:cjc024_0304"
    INDEX 01 03:56:46
  TRACK 209 AUDIO
    TITLE "0:"
    INDEX 01 03:59:05
  TRACK 210 AUDIO
    TITLE "18:cjc024_0305"
    INDEX 01 04:00:06
  TRACK 211 AUDIO
    TITLE "0:"
    INDEX 01 04:01:21
  TRACK 212 AUDIO
    TITLE "19:cjc024_0306"
    INDEX 01 04:01:45
  TRACK 213 AUDIO
    TITLE "0:"
    INDEX 01 04:03:24
  TRACK 214 AUDIO
    TITLE "18:cjc024_0307"
    INDEX 01 04:04:24
  TRACK 215 AUDIO
    TITLE "0:"
    INDEX 01 04:05:19
  TRACK 216 AUDIO
    TITLE "19:cjc024_0308"
    INDEX 01 04:05:45
  TRACK 217 AUDIO
    TITLE "0:"
    INDEX 01 04:07:18
  TRACK 218 AUDIO
    TITLE "18:cjc024_0309"
    INDEX 01 04:08:24
  TRACK 219 AUDIO
    TITLE "0:"
    INDEX 01 04:09:27
  TRACK 220 AUDIO
    TITLE "19:cjc024_0310"
    INDEX 01 04:09:50
  TRACK 221 AUDIO
    TITLE "0:"
    INDEX 01 04:12:00
  TRACK 222 AUDIO
    TITLE "18:cjc024_0311"
    INDEX 01 04:12:72
  TRACK 223 AUDIO
    TITLE "0:"
    INDEX 01 04:14:20
  TRACK 224 AUDIO
    TITLE "19:cjc024_0312"
    INDEX 01 04:14:54
  TRACK 225 AUDIO
    TITLE "0:"
    INDEX 01 04:17:19
  TRACK 226 AUDIO
    TITLE "18:cjc024_0313"
    INDEX 01 04:18:18
  TRACK 227 AUDIO
    TITLE "0:"
    INDEX 01 04:19:19
  TRACK 228 AUDIO
    TITLE "19:cjc024_0314"
    INDEX 01 04:19:45
  TRACK 229 AUDIO
    TITLE "0:"
    INDEX 01 04:21:30
  TRACK 230 AUDIO
    TITLE "18:cjc024_0315"
    INDEX 01 04:22:29
  TRACK 231 AUDIO
    TITLE "0:"
    INDEX 01 04:23:45
  TRACK 232 AUDIO
    TITLE "19:cjc024_0316"
    INDEX 01 04:23:70
  TRACK 233 AUDIO
    TITLE "0:"
    INDEX 01 04:26:02
  TRACK 234 AUDIO
    TITLE "18:cjc024_0317"
    INDEX 01 04:27:03
  TRACK 235 AUDIO
    TITLE "0:"
    INDEX 01 04:28:05
  TRACK 236 AUDIO
    TITLE "19:cjc024_0318"
    INDEX 01 04:28:28
  TRACK 237 AUDIO
    TITLE "0:"
    INDEX 01 04:29:67
  TRACK 238 AUDIO
    TITLE "18:cjc024_0319"
    INDEX 01 04:30:68
  TRACK 239 AUDIO
    TITLE "0:"
    INDEX 01 04:32:02
  TRACK 240 AUDIO
    TITLE "19:cjc024_0320"
    INDEX 01 04:32:28
  TRACK 241 AUDIO
    TITLE "0:"
    INDEX 01 04:33:69
  TRACK 242 AUDIO
    TITLE "18:cjc024_0321"
    INDEX 01 04:34:70
  TRACK 243 AUDIO
    TITLE "0:"
    INDEX 01 04:35:69
  TRACK 244 AUDIO
    TITLE "19:cjc024_0322"
    INDEX 01 04:36:20
  TRACK 245 AUDIO
    TITLE "0:"
    INDEX 01 04:38:11
  TRACK 246 AUDIO
    TITLE "18:cjc024_0323"
    INDEX 01 04:39:10
  TRACK 247 AUDIO
    TITLE "0:"
    INDEX 01 04:40:29
  TRACK 248 AUDIO
    TITLE "19:cjc024_0324"
    INDEX 01 04:40:51
  TRACK 249 AUDIO
    TITLE "0:"
    INDEX 01 04:42:42
  TRACK 250 AUDIO
    TITLE "18:cjc024_0325"
    INDEX 01 04:43:43
  TRACK 251 AUDIO
    TITLE "0:"
    INDEX 01 04:44:55
  TRACK 252 AUDIO
    TITLE "19:cjc024_0326"
    INDEX 01 04:45:05
  TRACK 253 AUDIO
    TITLE "0:"
    INDEX 01 04:46:61
  TRACK 254 AUDIO
    TITLE "18:cjc024_0327"
    INDEX 01 04:47:69
  TRACK 255 AUDIO
    TITLE "0:"
    INDEX 01 04:49:17
  TRACK 256 AUDIO
    TITLE "19:cjc024_0328"
    INDEX 01 04:49:40
  TRACK 257 AUDIO
    TITLE "0:"
    INDEX 01 04:51:51
  TRACK 258 AUDIO
    TITLE "18:cjc024_0329"
    INDEX 01 04:52:50
  TRACK 259 AUDIO
    TITLE "0:"
    INDEX 01 04:53:59
  TRACK 260 AUDIO
    TITLE "19:cjc024_0330"
    INDEX 01 04:54:14
  TRACK 261 AUDIO
    TITLE "0:"
    INDEX 01 04:55:66
  TRACK 262 AUDIO
    TITLE "18:cjc024_0331"
    INDEX 01 04:56:66
  TRACK 263 AUDIO
    TITLE "0:"
    INDEX 01 04:58:10
  TRACK 264 AUDIO
    TITLE "19:cjc024_0332"
    INDEX 01 04:58:33
  TRACK 265 AUDIO
    TITLE "0:"
    INDEX 01 05:00:30
  TRACK 266 AUDIO
    TITLE "18:cjc024_0333"
    INDEX 01 05:01:28
  TRACK 267 AUDIO
    TITLE "0:"
    INDEX 01 05:02:39
  TRACK 268 AUDIO
    TITLE "19:cjc024_0334"
    INDEX 01 05:02:72
  TRACK 269 AUDIO
    TITLE "0:"
    INDEX 01 05:04:44
  TRACK 270 AUDIO
    TITLE "18:cjc024_0335"
    INDEX 01 05:05:45
  TRACK 271 AUDIO
    TITLE "0:"
    INDEX 01 05:06:60
  TRACK 272 AUDIO
    TITLE "19:cjc024_0336"
    INDEX 01 05:07:11
  TRACK 273 AUDIO
    TITLE "0:"
    INDEX 01 05:09:68
  TRACK 274 AUDIO
    TITLE "18:cjc024_0337"
    INDEX 01 05:10:68
  TRACK 275 AUDIO
    TITLE "0:"
    INDEX 01 05:12:16
  TRACK 276 AUDIO
    TITLE "19:cjc024_0338"
    INDEX 01 05:12:41
  TRACK 277 AUDIO
    TITLE "0:"
    INDEX 01 05:15:04
  TRACK 278 AUDIO
    TITLE "18:cjc024_0339"
    INDEX 01 05:16:06
  TRACK 279 AUDIO
    TITLE "0:"
    INDEX 01 05:17:11
  TRACK 280 AUDIO
    TITLE "19:cjc024_0340"
    INDEX 01 05:17:34
  TRACK 281 AUDIO
    TITLE "0:"
    INDEX 01 05:19:06
  TRACK 282 AUDIO
    TITLE "18:cjc024_0341"
    INDEX 01 05:20:05
  TRACK 283 AUDIO
    TITLE "0:"
    INDEX 01 05:21:22
  TRACK 284 AUDIO
    TITLE "19:cjc024_0342"
    INDEX 01 05:21:48
  TRACK 285 AUDIO
    TITLE "0:"
    INDEX 01 05:24:72
  TRACK 286 AUDIO
    TITLE "18:cjc024_0343"
    INDEX 01 05:25:73
  TRACK 287 AUDIO
    TITLE "0:"
    INDEX 01 05:27:21
  TRACK 288 AUDIO
    TITLE "19:cjc024_0344"
    INDEX 01 05:27:51
  TRACK 289 AUDIO
    TITLE "0:"
    INDEX 01 05:30:47
  TRACK 290 AUDIO
    TITLE "18:cjc024_0345"
    INDEX 01 05:31:50
  TRACK 291 AUDIO
    TITLE "0:"
    INDEX 01 05:32:60
  TRACK 292 AUDIO
    TITLE "19:cjc024_0346"
    INDEX 01 05:33:08
  TRACK 293 AUDIO
    TITLE "0:"
    INDEX 01 05:35:07
  TRACK 294 AUDIO
    TITLE "18:cjc024_0347"
    INDEX 01 05:36:06
  TRACK 295 AUDIO
    TITLE "0:"
    INDEX 01 05:37:20
  TRACK 296 AUDIO
    TITLE "19:cjc024_0348"
    INDEX 01 05:37:53
  TRACK 297 AUDIO
    TITLE "0:"
    INDEX 01 05:40:18
  TRACK 298 AUDIO
    TITLE "18:cjc024_0349"
    INDEX 01 05:41:17
  TRACK 299 AUDIO
    TITLE "0:"
    INDEX 01 05:42:44
  TRACK 300 AUDIO
    TITLE "19:cjc024_0350"
    INDEX 01 05:42:68
  TRACK 301 AUDIO
    TITLE "0:"
    INDEX 01 05:44:61
  TRACK 302 AUDIO
    TITLE "18:cjc024_0351"
    INDEX 01 05:45:62
  TRACK 303 AUDIO
    TITLE "0:"
    INDEX 01 05:47:04
  TRACK 304 AUDIO
    TITLE "19:cjc024_0352"
    INDEX 01 05:47:28
  TRACK 305 AUDIO
    TITLE "0:"
    INDEX 01 05:49:11
  TRACK 306 AUDIO
    TITLE "18:cjc024_0353"
    INDEX 01 05:50:10
  TRACK 307 AUDIO
    TITLE "0:"
    INDEX 01 05:51:18
  TRACK 308 AUDIO
    TITLE "19:cjc024_0354"
    INDEX 01 05:51:45
  TRACK 309 AUDIO
    TITLE "0:"
    INDEX 01 05:53:05
  TRACK 310 AUDIO
    TITLE "18:cjc024_0355"
    INDEX 01 05:54:06
  TRACK 311 AUDIO
    TITLE "0:"
    INDEX 01 05:55:14
  TRACK 312 AUDIO
    TITLE "19:cjc024_0356"
    INDEX 01 05:55:39
  TRACK 313 AUDIO
    TITLE "0:"
    INDEX 01 05:57:32
  TRACK 314 AUDIO
    TITLE "18:cjc024_0357"
    INDEX 01 05:58:33
  TRACK 315 AUDIO
    TITLE "0:"
    INDEX 01 05:59:70
  TRACK 316 AUDIO
    TITLE "19:cjc024_0358"
    INDEX 01 06:00:21
  TRACK 317 AUDIO
    TITLE "0:"
    INDEX 01 06:02:04
  TRACK 318 AUDIO
    TITLE "18:cjc024_0359"
    INDEX 01 06:03:03
  TRACK 319 AUDIO
    TITLE "0:"
    INDEX 01 06:04:11
  TRACK 320 AUDIO
    TITLE "19:cjc024_0360"
    INDEX 01 06:04:34
  TRACK 321 AUDIO
    TITLE "0:"
    INDEX 01 06:07:13
  TRACK 322 AUDIO
    TITLE "18:cjc024_0361"
    INDEX 01 06:08:18
  TRACK 323 AUDIO
    TITLE "0:"
    INDEX 01 06:09:27
  TRACK 324 AUDIO
    TITLE "19:cjc024_0362"
    INDEX 01 06:09:47
  TRACK 325 AUDIO
    TITLE "0:"
    INDEX 01 06:11:24
  TRACK 326 AUDIO
    TITLE "18:cjc024_0363"
    INDEX 01 06:12:36
  TRACK 327 AUDIO
    TITLE "0:"
    INDEX 01 06:13:57
  TRACK 328 AUDIO
    TITLE "19:cjc024_0364"
    INDEX 01 06:14:01
  TRACK 329 AUDIO
    TITLE "0:"
    INDEX 01 06:15:63
  TRACK 330 AUDIO
    TITLE "18:cjc024_0365"
    INDEX 01 06:16:69
  TRACK 331 AUDIO
    TITLE "0:"
    INDEX 01 06:17:68
  TRACK 332 AUDIO
    TITLE "19:cjc024_0366"
    INDEX 01 06:18:26
  TRACK 333 AUDIO
    TITLE "0:"
    INDEX 01 06:20:17
  TRACK 334 AUDIO
    TITLE "18:cjc024_0367"
    INDEX 01 06:21:21
  TRACK 335 AUDIO
    TITLE "0:"
    INDEX 01 06:22:34
  TRACK 336 AUDIO
    TITLE "19:cjc024_0368"
    INDEX 01 06:22:61
  TRACK 337 AUDIO
    TITLE "0:"
    INDEX 01 06:24:45
  TRACK 338 AUDIO
    TITLE "18:cjc024_0369"
    INDEX 01 06:25:46
  TRACK 339 AUDIO
    TITLE "0:"
    INDEX 01 06:26:51
  TRACK 340 AUDIO
    TITLE "19:cjc024_0370"
    INDEX 01 06:27:06
  TRACK 341 AUDIO
    TITLE "0:"
    INDEX 01 06:29:22
  TRACK 342 AUDIO
    TITLE "18:cjc024_0371"
    INDEX 01 06:30:22
  TRACK 343 AUDIO
    TITLE "0:"
    INDEX 01 06:31:25
  TRACK 344 AUDIO
    TITLE "19:cjc024_0372"
    INDEX 01 06:31:52
  TRACK 345 AUDIO
    TITLE "0:"
    INDEX 01 06:34:23
  TRACK 346 AUDIO
    TITLE "18:cjc024_0373"
    INDEX 01 06:35:23
  TRACK 347 AUDIO
    TITLE "0:"
    INDEX 01 06:36:52
  TRACK 348 AUDIO
    TITLE "19:cjc024_0374"
    INDEX 01 06:37:00
  TRACK 349 AUDIO
    TITLE "0:"
    INDEX 01 06:39:54
  TRACK 350 AUDIO
    TITLE "18:cjc024_0375"
    INDEX 01 06:40:53
  TRACK 351 AUDIO
    TITLE "0:"
    INDEX 01 06:41:63
  TRACK 352 AUDIO
    TITLE "19:cjc024_0376"
    INDEX 01 06:42:13
  TRACK 353 AUDIO
    TITLE "0:"
    INDEX 01 06:44:36
  TRACK 354 AUDIO
    TITLE "18:cjc024_0377"
    INDEX 01 06:45:35
  TRACK 355 AUDIO
    TITLE "0:"
    INDEX 01 06:46:52
  TRACK 356 AUDIO
    TITLE "19:cjc024_0378"
    INDEX 01 06:47:06
  TRACK 357 AUDIO
    TITLE "0:"
    INDEX 01 06:49:68
  TRACK 358 AUDIO
    TITLE "18:cjc024_0379"
    INDEX 01 06:50:67
  TRACK 359 AUDIO
    TITLE "0:"
    INDEX 01 06:52:02
  TRACK 360 AUDIO
    TITLE "19:cjc024_0380"
    INDEX 01 06:52:27
  TRACK 361 AUDIO
    TITLE "0:"
    INDEX 01 06:54:03
  TRACK 362 AUDIO
    TITLE "18:cjc024_0381"
    INDEX 01 06:55:02
  TRACK 363 AUDIO
    TITLE "0:"
    INDEX 01 06:56:17
  TRACK 364 AUDIO
    TITLE "19:cjc024_0382"
    INDEX 01 06:56:41
  TRACK 365 AUDIO
    TITLE "0:"
    INDEX 01 06:58:22
  TRACK 366 AUDIO
    TITLE "18:cjc024_0383"
    INDEX 01 06:59:25
  TRACK 367 AUDIO
    TITLE "0:"
    INDEX 01 07:00:38
  TRACK 368 AUDIO
    TITLE "19:cjc024_0384"
    INDEX 01 07:00:68
  TRACK 369 AUDIO
    TITLE "0:"
    INDEX 01 07:03:13
  TRACK 370 AUDIO
    TITLE "18:cjc024_0385"
    INDEX 01 07:04:13
  TRACK 371 AUDIO
    TITLE "0:"
    INDEX 01 07:05:26
  TRACK 372 AUDIO
    TITLE "19:cjc024_0386"
    INDEX 01 07:05:51
  TRACK 373 AUDIO
    TITLE "0:"
    INDEX 01 07:08:32
  TRACK 374 AUDIO
    TITLE "18:cjc024_0387"
    INDEX 01 07:09:32
  TRACK 375 AUDIO
    TITLE "0:"
    INDEX 01 07:10:23
  TRACK 376 AUDIO
    TITLE "19:cjc024_0388"
    INDEX 01 07:10:49
  TRACK 377 AUDIO
    TITLE "0:"
    INDEX 01 07:13:04
  TRACK 378 AUDIO
    TITLE "18:cjc024_0389"
    INDEX 01 07:14:05
  TRACK 379 AUDIO
    TITLE "0:"
    INDEX 01 07:15:18
  TRACK 380 AUDIO
    TITLE "19:cjc024_0390"
    INDEX 01 07:15:42
  TRACK 381 AUDIO
    TITLE "0:"
    INDEX 01 07:17:27
  TRACK 382 AUDIO
    TITLE "18:cjc024_0391"
    INDEX 01 07:18:27
  TRACK 383 AUDIO
    TITLE "0:"
    INDEX 01 07:19:42
  TRACK 384 AUDIO
    TITLE "19:cjc024_0392"
    INDEX 01 07:19:65
  TRACK 385 AUDIO
    TITLE "0:"
    INDEX 01 07:21:39
  TRACK 386 AUDIO
    TITLE "18:cjc024_0393"
    INDEX 01 07:22:42
  TRACK 387 AUDIO
    TITLE "0:"
    INDEX 01 07:23:45
  TRACK 388 AUDIO
    TITLE "19:cjc024_0394"
    INDEX 01 07:23:71
  TRACK 389 AUDIO
    TITLE "0:"
    INDEX 01 07:25:34
  TRACK 390 AUDIO
    TITLE "18:cjc024_0395"
    INDEX 01 07:26:36
  TRACK 391 AUDIO
    TITLE "0:"
    INDEX 01 07:27:37
  TRACK 392 AUDIO
    TITLE "19:cjc024_0396"
    INDEX 01 07:27:63
  TRACK 393 AUDIO
    TITLE "0:"
    INDEX 01 07:29:44
  TRACK 394 AUDIO
    TITLE "18:cjc024_0397"
    INDEX 01 07:30:43
  TRACK 395 AUDIO
    TITLE "0:"
    INDEX 01 07:31:68
  TRACK 396 AUDIO
    TITLE "19:cjc024_0398"
    INDEX 01 07:32:17
  TRACK 397 AUDIO
    TITLE "0:"
    INDEX 01 07:34:47
  TRACK 398 AUDIO
    TITLE "18:cjc024_0399"
    INDEX 01 07:35:47
  TRACK 399 AUDIO
    TITLE "0:"
    INDEX 01 07:36:60
  TRACK 400 AUDIO
    TITLE "19:cjc024_0400"
    INDEX 01 07:37:08
  TRACK 401 AUDIO
    TITLE "0:"
    INDEX 01 07:39:29
